<svg id="starzplay" class="Header-logo" xmlns="http://www.w3.org/2000/svg" viewBox="0 0 290.4 70.08">
<path class="cls-1" d="M70.73 26.56l4.84-9.68 4.84 9.68Zm-15 13.35h8.36l3.08-6.16h17l3.08 6.16h8.36L75.57.44Z"></path><polygon class="cls-1" points="62.8 0.73 31.55 0.73 31.55 7.92 43.29 7.92 43.29 39.91 51.21 39.91 51.21 7.92 62.8 7.92 62.8 0.73"></polygon><path class="cls-1" d="M111.08 17.9h-5.87v-10h5.87c4.26 0 6.6 1.76 6.6 5s-2.49 5-6.6 5m14.67-5.28a11 11 0 0 0-3.67-8.51 14.66 14.66 0 0 0-10-3.38H97.29V39.91h7.92V25.68h5.72l8.22 14.23h9.1l-9.39-16.29c6-2.64 6.9-8.07 6.9-11"></path><polygon class="cls-1" points="164.2 0.73 131.77 0.73 131.77 7.92 150.26 7.92 130.16 39.91 163.76 39.91 163.76 32.72 144.1 32.72 164.2 0.73"></polygon><path class="cls-1" d="M17.61 16.73c-6.46-1.61-8.8-2.64-8.8-5.58C8.8 8.66 11.15 7 14.53 7c5.14 0 9.83 3.52 11.15 4.7L29.05 5A22.28 22.28 0 0 0 14.67 0C6.6 0 1 4.84 1 11.74c0 7.48 4.84 10.13 13.21 12 7 1.61 8.22 2.93 8.22 5.28 0 2.79-2.49 4.4-6.16 4.4-4.7 0-8.51-1.76-12.91-5.87L0 34.63a24.11 24.11 0 0 0 16 6c8.66 0 14.23-4.7 14.23-12.18 0-6.16-3.67-9.54-12.62-11.74"></path><path class="cls-1" d="M173.3.73h12.91c6.9 0 11.89 4.26 11.89 11.45S193 23.77 186.21 23.77H175.79V40.06h-2.35V.73Zm12.77 20.69c5.72 0 9.54-3.38 9.54-9.24s-3.82-9.24-9.54-9.24H175.65V21.42Z"></path><path class="cls-1" d="M206.46.73h2.35v37h18.78v2.2H206.46V.73Z"></path><path class="cls-1" d="M254.15 26.27H237.57l-5 13.5h-2.64L244.61.59h2.64l14.67 39.18h-2.64ZM245.79 3.52s-.88 3.08-1.47 4.7l-6 15.85h15L247.4 8.22a48.74 48.74 0 0 0-1.61-4.7Z"></path><path class="cls-1" d="M274.55 22.89 261.2.73H264l9.24 15.41c1.17 1.91 2.35 4.4 2.35 4.4h.15s1.17-2.49 2.35-4.4L287.61.73h2.79L277.19 22.89v17h-2.35v-17Z"></path><path class="cls-1" d="M173.43 48.52H175v5.76q0 .21 0 .39t0 .31l0 .28h0a4.16 4.16 0 0 1 2.12-1.94 4.86 4.86 0 0 1 .86-.26 5.18 5.18 0 0 1 1-.1 5 5 0 0 1 2.16.46 4.68 4.68 0 0 1 1.63 1.28 5.8 5.8 0 0 1 1 2 8.47 8.47 0 0 1 .36 2.53 7.75 7.75 0 0 1-.4 2.55 5.81 5.81 0 0 1-1.11 2A4.94 4.94 0 0 1 181 65a5.17 5.17 0 0 1-2.15.44 4.6 4.6 0 0 1-1-.1 4.5 4.5 0 0 1-.82-.26 3.87 3.87 0 0 1-.67-.37 4.42 4.42 0 0 1-.53-.43 4.08 4.08 0 0 1-.89-1.16h0l0 .28q0 .13 0 .31t0 .39v1.06h-1.56ZM175 59.22a6.68 6.68 0 0 0 .23 1.75 4.83 4.83 0 0 0 .7 1.53 3.66 3.66 0 0 0 1.18 1.08 3.27 3.27 0 0 0 1.67.41 3.47 3.47 0 0 0 2.7-1.26 4.66 4.66 0 0 0 .82-1.51 6.23 6.23 0 0 0 .31-2 6.55 6.55 0 0 0-.28-2 4.59 4.59 0 0 0-.77-1.5 3.45 3.45 0 0 0-1.19-1 3.4 3.4 0 0 0-1.52-.34 3.84 3.84 0 0 0-1.44.28 3.35 3.35 0 0 0-1.23.86 4.29 4.29 0 0 0-.86 1.49A6.49 6.49 0 0 0 175 59.22Z"></path><path class="cls-1" d="M186.18 68.09a5 5 0 0 0 .43.28 2.8 2.8 0 0 0 .44.18 1.72 1.72 0 0 0 .54.08 1.75 1.75 0 0 0 .73-.15 2.21 2.21 0 0 0 .61-.41 3.27 3.27 0 0 0 .51-.62 5.12 5.12 0 0 0 .4-.76l.74-1.67-5-11.78h1.77l3.49 8.66q.09.23.17.45l.13.4.13.4h0l.12-.4.13-.4q.07-.22.16-.45l3.42-8.66h1.74L191.06 67.6a4.31 4.31 0 0 1-1.35 1.8 3.31 3.31 0 0 1-2.07.67 3.08 3.08 0 0 1-.85-.11 4.73 4.73 0 0 1-.66-.24 2.7 2.7 0 0 1-.58-.36Z"></path><path class="cls-1" d="M204.83 56.72a9 9 0 0 1 .29-2.3 8.52 8.52 0 0 1 .82-2 8 8 0 0 1 3-3 8.28 8.28 0 0 1 2-.84 8.57 8.57 0 0 1 2.26-.29 9.92 9.92 0 0 1 1.39.09 10.21 10.21 0 0 1 1.21.24 8 8 0 0 1 1 .35q.47.2.85.39a6.79 6.79 0 0 1 1.5 1.07l-.88 1.2a7.11 7.11 0 0 0-1.36-.91 9.43 9.43 0 0 0-1.58-.63 7.09 7.09 0 0 0-2.1-.29 6.65 6.65 0 0 0-2.69.54 6.43 6.43 0 0 0-2.11 1.47A6.69 6.69 0 0 0 207 54a7.44 7.44 0 0 0-.5 2.73 7.87 7.87 0 0 0 .5 2.8 7 7 0 0 0 1.39 2.29 6.61 6.61 0 0 0 2.13 1.54 6.41 6.41 0 0 0 2.71.57 7.47 7.47 0 0 0 1.19-.09 7.61 7.61 0 0 0 1.07-.25 7.2 7.2 0 0 0 .92-.36q.43-.2.77-.41a7.13 7.13 0 0 0 1.43-1.12l.95 1.15a8 8 0 0 1-1.65 1.29 9.37 9.37 0 0 1-.9.47 9.2 9.2 0 0 1-1.09.41 9 9 0 0 1-2.71.4 8.63 8.63 0 0 1-2.33-.31 8 8 0 0 1-3.71-2.22 8.25 8.25 0 0 1-1.27-1.76 9 9 0 0 1-.81-2.08A9.4 9.4 0 0 1 204.83 56.72Z"></path><path class="cls-1" d="M222.6 48.52h1.67v2H222.6Zm0 4.73h1.6V65.12h-1.6Z"></path><path class="cls-1" d="M228.12 53.25h1.58V55q0 .2 0 .37t0 .3l0 .28h0a4.73 4.73 0 0 1 .52-.92 4.64 4.64 0 0 1 1-1 5.48 5.48 0 0 1 1.4-.78 5.13 5.13 0 0 1 1.87-.32 4.91 4.91 0 0 1 1.86.31 3 3 0 0 1 1.23.9 3.68 3.68 0 0 1 .67 1.45 8.35 8.35 0 0 1 .21 2v7.55h-1.6V58a10.73 10.73 0 0 0-.08-1.34 3.06 3.06 0 0 0-.35-1.12 2 2 0 0 0-.78-.77 2.78 2.78 0 0 0-1.37-.29 4.27 4.27 0 0 0-1.45.25 4.53 4.53 0 0 0-1.26.69 4.45 4.45 0 0 0-1 1.06 4.77 4.77 0 0 0-.62 1.35 3.87 3.87 0 0 0-.16.77q0 .4 0 .83v5.69h-1.6Z"></path><path class="cls-1" d="M241.28 59.2a6.92 6.92 0 0 1 .47-2.62 5.92 5.92 0 0 1 1.26-2 5.4 5.4 0 0 1 1.86-1.23 6 6 0 0 1 2.26-.43 5 5 0 0 1 2.16.44 4.43 4.43 0 0 1 1.55 1.19 5.13 5.13 0 0 1 .93 1.75 7 7 0 0 1 .31 2.1q0 .12 0 .25t0 .27l0 .31h-9.1a5.3 5.3 0 0 0 .4 2 4.51 4.51 0 0 0 1 1.48 4.13 4.13 0 0 0 1.45.9 5 5 0 0 0 1.75.31 4.54 4.54 0 0 0 1.48-.22 7.31 7.31 0 0 0 1.14-.49 5 5 0 0 0 1-.73l.74 1.22a6.89 6.89 0 0 1-1.2.83 8.22 8.22 0 0 1-1.38.57 5.9 5.9 0 0 1-1.81.26A6.55 6.55 0 0 1 245 65a5.82 5.82 0 0 1-3.28-3.24A6.5 6.5 0 0 1 241.28 59.2Zm9.19-1.26a4.65 4.65 0 0 0-.32-1.61 3.34 3.34 0 0 0-.74-1.13 3 3 0 0 0-1.05-.67 3.62 3.62 0 0 0-1.26-.22 4.27 4.27 0 0 0-1.42.24 3.86 3.86 0 0 0-1.22.69 4 4 0 0 0-.92 1.14 4.65 4.65 0 0 0-.52 1.57Z"></path><path class="cls-1" d="M255.17 53.25h1.53V54.4q0 .2 0 .36t0 .29l0 .27h0a4.05 4.05 0 0 1 .88-1.18 5.23 5.23 0 0 1 .55-.43 4 4 0 0 1 .71-.38 4.92 4.92 0 0 1 .89-.27 5.21 5.21 0 0 1 1.08-.1 5 5 0 0 1 2.16.46 4.68 4.68 0 0 1 1.63 1.28 5.8 5.8 0 0 1 1 2A8.47 8.47 0 0 1 266 59.2a7.75 7.75 0 0 1-.4 2.55 5.86 5.86 0 0 1-1.11 2A4.91 4.91 0 0 1 262.79 65a5.07 5.07 0 0 1-2.13.44 4.66 4.66 0 0 1-1-.1 4.82 4.82 0 0 1-.82-.25 3.62 3.62 0 0 1-.67-.36 5.31 5.31 0 0 1-.53-.41 3.81 3.81 0 0 1-.88-1.14h0q0 .13 0 .29t0 .33q0 .19 0 .42v5.67h-1.6Zm1.56 6A6.25 6.25 0 0 0 257 61a5.05 5.05 0 0 0 .73 1.53 3.74 3.74 0 0 0 1.18 1.08 3.17 3.17 0 0 0 1.63.41 3.47 3.47 0 0 0 2.7-1.26 4.66 4.66 0 0 0 .82-1.51 6.23 6.23 0 0 0 .31-2 6.55 6.55 0 0 0-.28-2 4.59 4.59 0 0 0-.77-1.5 3.45 3.45 0 0 0-1.19-1 3.4 3.4 0 0 0-1.52-.34 3.84 3.84 0 0 0-1.44.28 3.35 3.35 0 0 0-1.23.86A4.29 4.29 0 0 0 257 57 6.49 6.49 0 0 0 256.72 59.22Z"></path><path class="cls-1" d="M268.1 61.88a3.35 3.35 0 0 1 .4-1.69 3.67 3.67 0 0 1 1-1.15 4.86 4.86 0 0 1 1.43-.71 11.45 11.45 0 0 1 1.61-.37 12.49 12.49 0 0 1 1.55-.15l1.25 0H276v-.31a4.15 4.15 0 0 0-.22-1.44 2.39 2.39 0 0 0-.62-1 2.32 2.32 0 0 0-.94-.52 4.24 4.24 0 0 0-1.18-.16 4.85 4.85 0 0 0-1.35.18 6.29 6.29 0 0 0-1.05.4 5.59 5.59 0 0 0-.95.56L269 54.31a5.87 5.87 0 0 1 1.11-.67 8.88 8.88 0 0 1 1.33-.47 6.74 6.74 0 0 1 1.79-.21 4.42 4.42 0 0 1 3.3 1.16 4.66 4.66 0 0 1 1.14 3.41v7.59H276.1v-1.3q0-.22 0-.4t0-.31l0-.28h0a4.18 4.18 0 0 1-.86 1.29 4.39 4.39 0 0 1-.54.47A4 4 0 0 1 274 65a4.2 4.2 0 0 1-.85.29 4.46 4.46 0 0 1-1 .11 5 5 0 0 1-1.47-.22 4 4 0 0 1-1.29-.66 3.34 3.34 0 0 1-.92-1.1A3.26 3.26 0 0 1 268.1 61.88Zm1.65-.09a2.14 2.14 0 0 0 .66 1.54 2.49 2.49 0 0 0 .82.51 3.16 3.16 0 0 0 1.16.2 2.89 2.89 0 0 0 1.52-.4 3.94 3.94 0 0 0 1.15-1 4.75 4.75 0 0 0 .72-1.42 5.14 5.14 0 0 0 .25-1.56V59.1h-.68l-1.07 0q-.59 0-1.22.1a8.71 8.71 0 0 0-1.22.25 3.9 3.9 0 0 0-1.07.47 2.4 2.4 0 0 0-.75.75A2 2 0 0 0 269.74 61.79Z"></path><path class="cls-1" d="M285.17 60a1.35 1.35 0 0 0-.13.21l-.13.21-.15.24-2.88 4.46H280l4.18-6.19-3.83-5.68h1.89l2.55 4 .14.25.13.21.14.22h0l.13-.22.13-.21.15-.25 2.55-4h1.89l-3.83 5.68 4.17 6.19h-1.88l-2.88-4.46a1.84 1.84 0 0 1-.16-.24l-.13-.21-.12-.21h-.07Z"></path></svg>